<svg width="122" height="34" viewBox="0 0 122 34" fill="none" xmlns="http://www.w3.org/2000/svg">
<path d="M31.2459 17.6576C31.2459 18.3328 31.0727 18.9722 30.7679 19.5279C30.7261 19.5996 30.6843 19.6772 30.6365 19.749C29.9433 20.8245 28.7363 21.5416 27.3619 21.5416H26.3641C24.0277 21.5416 22.1275 23.4417 22.1275 25.7781V29.686C22.1275 30.3134 21.9781 30.911 21.7092 31.4308C21.0758 32.6976 19.7613 33.57 18.2435 33.57C18.1539 33.57 18.0642 33.564 17.9746 33.5581V24.9236C17.9746 24.4516 18.0164 23.9855 18.1061 23.5373C18.2315 22.8323 18.4646 22.163 18.7753 21.5416C19.5043 20.0955 20.6815 18.9184 22.1275 18.1894C22.5518 17.9743 23.0059 17.801 23.472 17.6695C24.1173 17.4843 24.8045 17.3887 25.5096 17.3887H31.234C31.24 17.4783 31.2459 17.5679 31.2459 17.6576Z" fill="#8146FF"/>
<path d="M34.0006 15.9013C34.0006 15.9909 33.9946 16.0805 33.9886 16.1642H25.5096C24.9419 16.1642 24.3862 16.0985 23.8544 15.979C23.2449 15.8475 22.6653 15.6384 22.1275 15.3635C20.6815 14.6345 19.5043 13.4574 18.7753 12.0113C18.602 11.6707 18.4586 11.3182 18.3451 10.9477H18.3391C18.1001 10.2187 17.9746 9.43592 17.9746 8.62924V3.19164C18.0642 3.18566 18.1539 3.17969 18.2435 3.17969C18.7514 3.17969 19.2414 3.28127 19.6895 3.46053C19.7732 3.49041 19.8509 3.52626 19.9286 3.56809C21.2312 4.18953 22.1275 5.52204 22.1275 7.06369V7.77476C22.1275 10.0813 23.9679 11.9575 26.2565 12.0113C26.2923 12.0173 26.3282 12.0173 26.3641 12.0173C26.3999 12.0173 26.4358 12.0173 26.4716 12.0113H30.1106C30.7918 12.0113 31.4312 12.1846 31.9869 12.4893C33.1879 13.1526 34.0006 14.4313 34.0006 15.9013Z" fill="#8146FF"/>
<path d="M16.0917 24.9236V30.5286C15.9901 30.5345 15.8886 30.5405 15.787 30.5405C15.297 30.5405 14.8309 30.4509 14.4007 30.2836C14.2692 30.2358 14.1437 30.182 14.0183 30.1162C12.9128 29.5546 12.1181 28.479 11.9388 27.2062V25.7781C11.9388 23.4417 10.0387 21.5416 7.70228 21.5416H3.88998C3.23268 21.5416 2.61124 21.3802 2.06748 21.0934C0.836555 20.4421 0 19.1454 0 17.6576C0 17.5679 0.00597566 17.4783 0.011951 17.3887H8.55676C9.1782 17.3887 9.78171 17.4664 10.3553 17.6098C10.9111 17.7412 11.4429 17.9384 11.9388 18.1894C13.3849 18.9184 14.562 20.0955 15.291 21.5416C15.4882 21.93 15.6495 22.3423 15.775 22.7665C15.9842 23.4477 16.0917 24.1767 16.0917 24.9236Z" fill="#8146FF"/>
<path d="M16.0905 0.011951V8.62846C16.0905 9.16027 16.0367 9.6861 15.9232 10.188C15.7917 10.8274 15.5766 11.4429 15.2898 12.0105C14.5608 13.4566 13.3836 14.6337 11.9376 15.3627C11.5611 15.5539 11.1667 15.7153 10.7544 15.8348C10.0553 16.0499 9.32035 16.1634 8.55551 16.1634H2.99242C2.98644 16.0798 2.98047 15.9901 2.98047 15.9005C2.98047 15.2611 3.13583 14.6636 3.40472 14.1318C3.46447 14.0123 3.5302 13.8928 3.60788 13.7792C4.29505 12.7156 5.49611 12.0105 6.86447 12.0105H7.59347C7.62932 12.0165 7.66517 12.0165 7.70103 12.0165C7.73688 12.0165 7.77273 12.0165 7.80858 12.0105C10.0972 11.9567 11.9376 10.0805 11.9376 7.77398V3.88998C11.9376 3.25061 12.0929 2.65307 12.3618 2.12126C13.0012 0.860455 14.3158 0 15.8276 0C15.9172 0 16.0068 0.00597566 16.0905 0.011951Z" fill="#8146FF"/>
<path d="M45.7216 7.54545H49.5909L54.7727 20.1932H54.9773L60.1591 7.54545H64.0284V25H60.9943V13.0085H60.8324L56.0085 24.9489H53.7415L48.9176 12.983H48.7557V25H45.7216V7.54545ZM73.1307 25.2557C71.8182 25.2557 70.6847 24.983 69.7301 24.4375C68.7813 23.8864 68.0511 23.108 67.5398 22.1023C67.0284 21.0909 66.7727 19.9006 66.7727 18.5312C66.7727 17.1847 67.0284 16.0028 67.5398 14.9858C68.0568 13.9631 68.7784 13.1676 69.7045 12.5994C70.6307 12.0256 71.7188 11.7386 72.9688 11.7386C73.7756 11.7386 74.5369 11.8693 75.2528 12.1307C75.9744 12.3864 76.6108 12.7841 77.1619 13.3239C77.7188 13.8636 78.1563 14.5511 78.4744 15.3864C78.7926 16.2159 78.9517 17.2045 78.9517 18.3523V19.2983H68.2216V17.2188H75.9943C75.9886 16.6278 75.8608 16.1023 75.6108 15.642C75.3608 15.1761 75.0114 14.8097 74.5625 14.5426C74.1193 14.2756 73.6023 14.142 73.0114 14.142C72.3807 14.142 71.8267 14.2955 71.3494 14.6023C70.8722 14.9034 70.5 15.3011 70.233 15.7955C69.9716 16.2841 69.8381 16.821 69.8324 17.4062V19.2216C69.8324 19.983 69.9716 20.6364 70.25 21.1818C70.5284 21.7216 70.9176 22.1364 71.4176 22.4261C71.9176 22.7102 72.5028 22.8523 73.1733 22.8523C73.6222 22.8523 74.0284 22.7898 74.392 22.6648C74.7557 22.5341 75.071 22.3438 75.3381 22.0938C75.6051 21.8438 75.8068 21.5341 75.9432 21.1648L78.8239 21.4886C78.642 22.25 78.2955 22.9148 77.7841 23.483C77.2784 24.0455 76.6307 24.483 75.8409 24.7955C75.0511 25.1023 74.1477 25.2557 73.1307 25.2557ZM86.4197 25.2301C85.3913 25.2301 84.4709 24.9659 83.6584 24.4375C82.8459 23.9091 82.2038 23.142 81.7322 22.1364C81.2607 21.1307 81.0249 19.9091 81.0249 18.4716C81.0249 17.017 81.2635 15.7898 81.7408 14.7898C82.2237 13.7841 82.8743 13.0256 83.6925 12.5142C84.5107 11.9972 85.4226 11.7386 86.4283 11.7386C87.1953 11.7386 87.826 11.8693 88.3203 12.1307C88.8146 12.3864 89.2067 12.696 89.4964 13.0597C89.7862 13.4176 90.0107 13.7557 90.1697 14.0739H90.2976V7.54545H93.3913V25H90.3572V22.9375H90.1697C90.0107 23.2557 89.7805 23.5937 89.4794 23.9517C89.1783 24.304 88.7805 24.6051 88.2862 24.8551C87.7919 25.1051 87.1697 25.2301 86.4197 25.2301ZM87.2805 22.6989C87.9339 22.6989 88.4908 22.5227 88.951 22.1705C89.4112 21.8125 89.7607 21.3153 89.9993 20.679C90.2379 20.0426 90.3572 19.3011 90.3572 18.4545C90.3572 17.608 90.2379 16.8722 89.9993 16.2472C89.7663 15.6222 89.4197 15.1364 88.9595 14.7898C88.505 14.4432 87.9453 14.2699 87.2805 14.2699C86.593 14.2699 86.0192 14.4489 85.5589 14.8068C85.0987 15.1648 84.7521 15.6591 84.5192 16.2898C84.2862 16.9205 84.1697 17.642 84.1697 18.4545C84.1697 19.2727 84.2862 20.0028 84.5192 20.6449C84.7578 21.2812 85.1072 21.7841 85.5675 22.1534C86.0334 22.517 86.6044 22.6989 87.2805 22.6989ZM96.679 25V11.9091H99.7642V25H96.679ZM98.2301 10.0511C97.7415 10.0511 97.321 9.8892 96.9688 9.56534C96.6165 9.23579 96.4403 8.84091 96.4403 8.38068C96.4403 7.91477 96.6165 7.51989 96.9688 7.19602C97.321 6.86648 97.7415 6.7017 98.2301 6.7017C98.7244 6.7017 99.1449 6.86648 99.4915 7.19602C99.8438 7.51989 100.02 7.91477 100.02 8.38068C100.02 8.84091 99.8438 9.23579 99.4915 9.56534C99.1449 9.8892 98.7244 10.0511 98.2301 10.0511ZM105.46 11.9091L108.102 16.7415L110.786 11.9091H114.05L110.104 18.4545L114.119 25H110.871L108.102 20.2869L105.357 25H102.085L106.073 18.4545L102.187 11.9091H105.46Z" fill="#8146FF"/>
<path d="M118.337 25.1875C117.82 25.1875 117.377 25.0057 117.008 24.642C116.638 24.2784 116.457 23.8352 116.462 23.3125C116.457 22.8011 116.638 22.3636 117.008 22C117.377 21.6364 117.82 21.4545 118.337 21.4545C118.837 21.4545 119.272 21.6364 119.641 22C120.016 22.3636 120.207 22.8011 120.212 23.3125C120.207 23.6591 120.116 23.9744 119.94 24.2585C119.769 24.5426 119.542 24.7699 119.258 24.9403C118.979 25.1051 118.673 25.1875 118.337 25.1875Z" fill="#FF447C"/>
</svg>
